<svg width="22" height="19" viewBox="0 0 22 19" fill="none" xmlns="http://www.w3.org/2000/svg">
<path d="M16.9999 8.16994C16.8126 7.98369 16.5591 7.87915 16.2949 7.87915C16.0308 7.87915 15.7773 7.98369 15.5899 8.16994L11.9999 11.7099L8.45995 8.16994C8.27259 7.98369 8.01913 7.87915 7.75495 7.87915C7.49076 7.87915 7.23731 7.98369 7.04995 8.16994C6.95622 8.26291 6.88183 8.37351 6.83106 8.49537C6.78029 8.61723 6.75415 8.74793 6.75415 8.87994C6.75415 9.01195 6.78029 9.14266 6.83106 9.26452C6.88183 9.38638 6.95622 9.49698 7.04995 9.58994L11.2899 13.8299C11.3829 13.9237 11.4935 13.9981 11.6154 14.0488C11.7372 14.0996 11.8679 14.1257 11.9999 14.1257C12.132 14.1257 12.2627 14.0996 12.3845 14.0488C12.5064 13.9981 12.617 13.9237 12.7099 13.8299L16.9999 9.58994C17.0937 9.49698 17.1681 9.38638 17.2188 9.26452C17.2696 9.14266 17.2957 9.01195 17.2957 8.87994C17.2957 8.74793 17.2696 8.61723 17.2188 8.49537C17.1681 8.37351 17.0937 8.26291 16.9999 8.16994Z" fill="#171414"/>
</svg>
